# xmcd CD database file
#
# Track frame offsets:
#	150
#	3178
#	25752
#	50961
#	71209
#	95232
#	114474
#	140101
#	163341
#	184380
#	213099
#
# Disc length: 2913 seconds
#
# Revision: 6
# Processed by: cddbd v1.5.2PL0 Copyright (c) Steve Scherf et al.
# Submitted via: CDex 1.70beta2
#
DISCID=a80b5f0b
DTITLE=Schiller - Symphonia (Limited Super Deluxe Edition) Disc 1
DYEAR=2014
DGENRE=New Age
TTITLE0=Tune In
TTITLE1=Berlin Bombay
TTITLE2=Ein Schöner Tag (Mit Eva Mali)
TTITLE3=Hochland
TTITLE4=Playing With Madness
TTITLE5=Lichtermeer
TTITLE6=Schiller
TTITLE7=Desert Empire
TTITLE8=Ruhe
TTITLE9=Sehnsucht (Instrumental)
TTITLE10=Sehnsucht: Reprise
EXTD=YEAR: 2014
EXTT0=
EXTT1=
EXTT2=
EXTT3=
EXTT4=
EXTT5=
EXTT6=
EXTT7=
EXTT8=
EXTT9=
EXTT10=
PLAYORDER=
